<svg fill="#000000" xmlns="http://www.w3.org/2000/svg" viewBox="0 0 50 50" width="50px" height="50px"><path d="M43 11L48.691 9 43 7 37.309 9zM44 12.667L44 19 49 17.333 49 11zM42 12.667L37 11 37 17.333 42 19zM29 11L34.691 9 29 7 23.309 9zM30 12.667L30 19 35 17.333 35 11zM28 12.667L23 11 23 17.333 28 19zM22 23L27.691 21 22 19 16.309 21zM23 24.667L23 31 28 29.333 28 23zM21 24.667L16 23 16 29.333 21 31zM8 23L13.691 21 8 19 2.309 21zM9 24.667L9 31 14 29.333 14 23zM7 24.667L2 23 2 29.333 7 31zM15 35L20.691 33 15 31 9.309 33zM16 36.667L16 43 21 41.333 21 35zM14 36.667L9 35 9 41.333 14 43z"/></svg>