<?xml version="1.0" encoding="utf-8"?>
<!-- Svg Vector Icons : http://www.onlinewebfonts.com/icon -->
<!DOCTYPE svg PUBLIC "-//W3C//DTD SVG 1.1//EN" "http://www.w3.org/Graphics/SVG/1.1/DTD/svg11.dtd">
<svg version="1.1" xmlns="http://www.w3.org/2000/svg" xmlns:xlink="http://www.w3.org/1999/xlink" x="0px" y="0px" viewBox="0 0 1000 1000" enable-background="new 0 0 1000 1000" xml:space="preserve">
<metadata> Svg Vector Icons : http://www.onlinewebfonts.com/icon </metadata>
<g><path d="M136.2,674.8l-57.6-20.7v-84.4l57.6,19.6V674.8"/><path d="M146.8,674.8l57.6-20.7v-84.4l-57.6,19.6V674.8"/><path d="M84.5,563.4l58.3-16.4l54.1,17.4l-54.1,18.4L84.5,563.4"/><path d="M67.6,556.9L10,536.2v-84.4l57.6,19.6V556.9"/><path d="M78.2,556.9l57.6-20.7v-84.4l-57.6,19.6V556.9"/><path d="M15.9,445.4L74.2,429l54.1,17.4l-54.1,18.4L15.9,445.4"/><path d="M202,556.9l-57.6-20.7v-84.4l57.6,19.6V556.9"/><path d="M212.6,556.9l57.6-20.7v-84.4l-57.6,19.6V556.9"/><path d="M150.4,445.4l58.3-16.4l54.1,17.4l-54.1,18.4L150.4,445.4"/><path d="M270.6,438.9L213,418.2v-84.4l57.6,19.6V438.9"/><path d="M281.2,438.9l57.6-20.7v-84.4l-57.6,19.6V438.9"/><path d="M218.9,327.5l58.3-16.4l54.1,17.4l-54.1,18.4L218.9,327.5"/><path d="M405.1,438.9l-57.6-20.7v-84.4l57.6,19.6V438.9"/><path d="M415.6,438.9l57.6-20.7v-84.4l-57.6,19.6V438.9"/><path d="M353.4,327.5l58.3-16.4l54.1,17.4l-54.1,18.4L353.4,327.5"/><path d="M375.8,619.8l-19.4,67.2H348l-15.1-49.9l-13.8,49.9h-8.6l-20.1-67.2h10.4l14.6,50.1l13.9-50.1h7.7l15.2,50.3l15.1-50.3H375.8L375.8,619.8z"/><path d="M375.8,619.8l-19.4,67.2H348l-15.1-49.9l-13.8,49.9h-8.6l-20.1-67.2h10.4l14.6,50.1l13.9-50.1h7.7l15.2,50.3l15.1-50.3H375.8L375.8,619.8z"/><path d="M429.3,667l9.7,2c-1.8,5.8-5.2,10.5-10.4,14.3c-5.1,3.8-11.2,5.7-18.1,5.7c-9.2,0-16.6-3.2-22.3-9.7c-5.7-6.5-8.5-14.9-8.5-25.4c0-10.7,2.9-19.4,8.8-26c5.9-6.6,13.3-9.9,22.2-9.9c8.8,0,15.8,3,21.2,9.1c5.3,6.1,8.1,15.2,8.2,27.3h-48.8c0,10.2,2.1,17,6.4,20.6c4.2,3.6,8.7,5.3,13.5,5.3C419.8,680.2,425.8,675.8,429.3,667L429.3,667z M428.7,646.5c-0.1-3.8-0.7-7.1-1.9-10c-1.2-2.9-3.1-5.4-5.8-7.5c-2.7-2.1-6-3.1-9.9-3.1c-5.2,0-9.6,1.9-13.2,5.6c-3.6,3.7-5.6,8.7-6.1,15H428.7L428.7,646.5z"/><path d="M429.3,667l9.7,2c-1.8,5.8-5.2,10.5-10.4,14.3c-5.1,3.8-11.2,5.7-18.1,5.7c-9.2,0-16.6-3.2-22.3-9.7c-5.7-6.5-8.5-14.9-8.5-25.4c0-10.7,2.9-19.4,8.8-26c5.9-6.6,13.3-9.9,22.2-9.9c8.8,0,15.8,3,21.2,9.1c5.3,6.1,8.1,15.2,8.2,27.3h-48.8c0,10.2,2.1,17,6.4,20.6c4.2,3.6,8.7,5.3,13.5,5.3C419.8,680.2,425.8,675.8,429.3,667L429.3,667z M428.7,646.5c-0.1-3.8-0.7-7.1-1.9-10c-1.2-2.9-3.1-5.4-5.8-7.5c-2.7-2.1-6-3.1-9.9-3.1c-5.2,0-9.6,1.9-13.2,5.6c-3.6,3.7-5.6,8.7-6.1,15H428.7L428.7,646.5z"/><path d="M459,687.1h-5v-90.8h10.5V631c4.8-8.7,11.4-13.1,19.8-13.1c7.7,0,14.2,3,19.4,9.1c5.2,6.1,7.8,14.9,7.8,26.5c0,10-2.6,18.4-7.7,25.2c-5.1,6.8-11.8,10.2-20,10.2c-9.1,0-16.1-4.3-21-13L459,687.1L459,687.1z M464.4,660.7c0.5,6.9,2.6,11.9,6.3,15c3.7,3.1,7.7,4.7,11.9,4.7c5.3,0,9.6-2.3,12.9-6.9c3.3-4.6,4.9-10.9,4.9-19c0-8.7-1.6-15.5-4.7-20.4c-3.2-5-7.5-7.4-13.1-7.4c-4.4,0-8.3,1.8-11.9,5.3c-3.5,3.5-5.6,8.1-6.3,13.7V660.7L464.4,660.7z"/><path d="M459,687.1h-5v-90.8h10.5V631c4.8-8.7,11.4-13.1,19.8-13.1c7.7,0,14.2,3,19.4,9.1c5.2,6.1,7.8,14.9,7.8,26.5c0,10-2.6,18.4-7.7,25.2c-5.1,6.8-11.8,10.2-20,10.2c-9.1,0-16.1-4.3-21-13L459,687.1L459,687.1z M464.4,660.7c0.5,6.9,2.6,11.9,6.3,15c3.7,3.1,7.7,4.7,11.9,4.7c5.3,0,9.6-2.3,12.9-6.9c3.3-4.6,4.9-10.9,4.9-19c0-8.7-1.6-15.5-4.7-20.4c-3.2-5-7.5-7.4-13.1-7.4c-4.4,0-8.3,1.8-11.9,5.3c-3.5,3.5-5.6,8.1-6.3,13.7V660.7L464.4,660.7z"/><path d="M538,669.6l10-2.1c2.2,8.4,9.2,12.7,21,12.7c4.3,0,8-1,11.1-2.9c3-1.9,4.5-4.7,4.5-8.2c0-5.3-3.8-8.6-11.5-10l-14.2-2.7c-5.5-1.1-10-3.2-13.2-6.3c-3.3-3.1-4.9-7.2-4.9-12.3c0-5.6,2.2-10.3,6.7-14.1c4.5-3.8,10.5-5.7,18.1-5.7c14.6,0,23.6,5.7,27,17.1l-9.6,2.1c-2.8-7-8.4-10.5-16.9-10.5c-4.3,0-7.7,0.9-10.5,2.6c-2.7,1.7-4.1,4.2-4.1,7.3c0,4.9,3.5,8.1,10.4,9.3l13.1,2.4c13.7,2.5,20.6,9.1,20.6,19.9c0,6.2-2.6,11.2-7.7,15c-5.1,3.8-11.9,5.7-20.4,5.7C551.6,688.9,541.8,682.5,538,669.6L538,669.6z"/><path d="M538,669.6l10-2.1c2.2,8.4,9.2,12.7,21,12.7c4.3,0,8-1,11.1-2.9c3-1.9,4.5-4.7,4.5-8.2c0-5.3-3.8-8.6-11.5-10l-14.2-2.7c-5.5-1.1-10-3.2-13.2-6.3c-3.3-3.1-4.9-7.2-4.9-12.3c0-5.6,2.2-10.3,6.7-14.1c4.5-3.8,10.5-5.7,18.1-5.7c14.6,0,23.6,5.7,27,17.1l-9.6,2.1c-2.8-7-8.4-10.5-16.9-10.5c-4.3,0-7.7,0.9-10.5,2.6c-2.7,1.7-4.1,4.2-4.1,7.3c0,4.9,3.5,8.1,10.4,9.3l13.1,2.4c13.7,2.5,20.6,9.1,20.6,19.9c0,6.2-2.6,11.2-7.7,15c-5.1,3.8-11.9,5.7-20.4,5.7C551.6,688.9,541.8,682.5,538,669.6L538,669.6z"/><path d="M651.3,667l9.7,2c-1.8,5.8-5.2,10.5-10.4,14.3c-5.1,3.8-11.2,5.7-18.1,5.7c-9.2,0-16.6-3.2-22.3-9.7c-5.7-6.5-8.5-14.9-8.5-25.4c0-10.7,2.9-19.4,8.8-26c5.9-6.6,13.3-9.9,22.2-9.9c8.8,0,15.8,3,21.2,9.1c5.3,6.1,8.1,15.2,8.2,27.3h-48.8c0,10.2,2.1,17,6.4,20.6c4.3,3.6,8.7,5.3,13.5,5.3C641.8,680.2,647.8,675.8,651.3,667L651.3,667z M650.7,646.5c-0.1-3.8-0.7-7.1-1.9-10c-1.2-2.9-3.1-5.4-5.8-7.5c-2.7-2.1-6-3.1-9.9-3.1c-5.2,0-9.6,1.9-13.2,5.6c-3.6,3.7-5.6,8.7-6.1,15H650.7L650.7,646.5z"/><path d="M651.3,667l9.7,2c-1.8,5.8-5.2,10.5-10.4,14.3c-5.1,3.8-11.2,5.7-18.1,5.7c-9.2,0-16.6-3.2-22.3-9.7c-5.7-6.5-8.5-14.9-8.5-25.4c0-10.7,2.9-19.4,8.8-26c5.9-6.6,13.3-9.9,22.2-9.9c8.8,0,15.8,3,21.2,9.1c5.3,6.1,8.1,15.2,8.2,27.3h-48.8c0,10.2,2.1,17,6.4,20.6c4.3,3.6,8.7,5.3,13.5,5.3C641.8,680.2,647.8,675.8,651.3,667L651.3,667z M650.7,646.5c-0.1-3.8-0.7-7.1-1.9-10c-1.2-2.9-3.1-5.4-5.8-7.5c-2.7-2.1-6-3.1-9.9-3.1c-5.2,0-9.6,1.9-13.2,5.6c-3.6,3.7-5.6,8.7-6.1,15H650.7L650.7,646.5z"/><path d="M683.9,687.1h-10.5v-67.2h9.2v15.7c3.2-7.3,6.5-12.1,9.7-14.3c3.3-2.2,6.6-3.3,10-3.3c1.1,0,2.4,0.1,4.1,0.2v10h-2.1c-5.8,0-10.5,2.1-14.3,6.4c-3.8,4.3-5.8,9.9-6.1,16.9V687.1L683.9,687.1z"/><path d="M683.9,687.1h-10.5v-67.2h9.2v15.7c3.2-7.3,6.5-12.1,9.7-14.3c3.3-2.2,6.6-3.3,10-3.3c1.1,0,2.4,0.1,4.1,0.2v10h-2.1c-5.8,0-10.5,2.1-14.3,6.4c-3.8,4.3-5.8,9.9-6.1,16.9V687.1L683.9,687.1z"/><path d="M771.5,619.8l-23.2,67.2h-10.9l-24-67.2h11.6l18.7,54.6l18.5-54.6H771.5L771.5,619.8z"/><path d="M771.5,619.8l-23.2,67.2h-10.9l-24-67.2h11.6l18.7,54.6l18.5-54.6H771.5L771.5,619.8z"/><path d="M779.9,596.3h11.2v11.6h-11.2V596.3z M780.4,619.8h10.5v67.2h-10.5V619.8z"/><path d="M779.9,596.3h11.2v11.6h-11.2V596.3z M780.4,619.8h10.5v67.2h-10.5V619.8z"/><path d="M845.6,663.5l9.4,1.7c-1.3,7.4-4.3,13.2-8.8,17.4c-4.6,4.2-10.3,6.3-17.1,6.3c-9.3,0-16.3-3.4-21.2-10.3c-4.9-6.8-7.3-15.2-7.3-25.1c0-10.2,2.6-18.7,7.7-25.5c5.1-6.8,12.1-10.2,20.9-10.2c7.3,0,13.2,2.2,17.6,6.6c4.4,4.4,7.1,10,8.2,17l-9.4,1.8c-1.8-11.1-7.1-16.6-16.1-16.6c-5.8,0-10.2,2.4-13.3,7.3c-3.1,4.9-4.7,11.3-4.7,19.1c0,8.6,1.5,15.3,4.6,20c3.1,4.8,7.4,7.1,13,7.1C837.8,680.2,843.3,674.7,845.6,663.5L845.6,663.5z"/><path d="M845.6,663.5l9.4,1.7c-1.3,7.4-4.3,13.2-8.8,17.4c-4.6,4.2-10.3,6.3-17.1,6.3c-9.3,0-16.3-3.4-21.2-10.3c-4.9-6.8-7.3-15.2-7.3-25.1c0-10.2,2.6-18.7,7.7-25.5c5.1-6.8,12.1-10.2,20.9-10.2c7.3,0,13.2,2.2,17.6,6.6c4.4,4.4,7.1,10,8.2,17l-9.4,1.8c-1.8-11.1-7.1-16.6-16.1-16.6c-5.8,0-10.2,2.4-13.3,7.3c-3.1,4.9-4.7,11.3-4.7,19.1c0,8.6,1.5,15.3,4.6,20c3.1,4.8,7.4,7.1,13,7.1C837.8,680.2,843.3,674.7,845.6,663.5L845.6,663.5z"/><path d="M914.1,667l9.7,2c-1.8,5.8-5.2,10.5-10.4,14.3c-5.1,3.8-11.2,5.7-18.1,5.7c-9.2,0-16.6-3.2-22.3-9.7c-5.7-6.5-8.5-14.9-8.5-25.4c0-10.7,2.9-19.4,8.8-26c5.9-6.6,13.3-9.9,22.2-9.9c8.8,0,15.8,3,21.2,9.1c5.3,6.1,8.1,15.2,8.2,27.3h-48.8c0,10.2,2.1,17,6.4,20.6c4.3,3.6,8.7,5.3,13.5,5.3C904.5,680.2,910.6,675.8,914.1,667L914.1,667z M913.5,646.5c-0.1-3.8-0.7-7.1-1.9-10c-1.2-2.9-3.1-5.4-5.8-7.5c-2.7-2.1-6-3.1-9.9-3.1c-5.2,0-9.6,1.9-13.2,5.6c-3.6,3.7-5.6,8.7-6.1,15H913.5L913.5,646.5z"/><path d="M914.1,667l9.7,2c-1.8,5.8-5.2,10.5-10.4,14.3c-5.1,3.8-11.2,5.7-18.1,5.7c-9.2,0-16.6-3.2-22.3-9.7c-5.7-6.5-8.5-14.9-8.5-25.4c0-10.7,2.9-19.4,8.8-26c5.9-6.6,13.3-9.9,22.2-9.9c8.8,0,15.8,3,21.2,9.1c5.3,6.1,8.1,15.2,8.2,27.3h-48.8c0,10.2,2.1,17,6.4,20.6c4.3,3.6,8.7,5.3,13.5,5.3C904.5,680.2,910.6,675.8,914.1,667L914.1,667z M913.5,646.5c-0.1-3.8-0.7-7.1-1.9-10c-1.2-2.9-3.1-5.4-5.8-7.5c-2.7-2.1-6-3.1-9.9-3.1c-5.2,0-9.6,1.9-13.2,5.6c-3.6,3.7-5.6,8.7-6.1,15H913.5L913.5,646.5z"/><path d="M930.9,669.6l10-2.1c2.2,8.4,9.2,12.7,21,12.7c4.4,0,8-1,11-2.9c3-1.9,4.5-4.7,4.5-8.2c0-5.3-3.8-8.6-11.5-10l-14.2-2.7c-5.5-1.1-10-3.2-13.2-6.3c-3.3-3.1-4.9-7.2-4.9-12.3c0-5.6,2.2-10.3,6.7-14.1c4.5-3.8,10.5-5.7,18.1-5.7c14.6,0,23.6,5.7,27,17.1l-9.6,2.1c-2.7-7-8.4-10.5-16.9-10.5c-4.3,0-7.7,0.9-10.5,2.6c-2.7,1.7-4.1,4.2-4.1,7.3c0,4.9,3.5,8.1,10.4,9.3l13.1,2.4c13.7,2.5,20.6,9.1,20.6,19.9c0,6.2-2.5,11.2-7.7,15c-5.1,3.8-11.9,5.7-20.4,5.7C944.5,688.9,934.6,682.5,930.9,669.6L930.9,669.6z"/><path d="M930.9,669.6l10-2.1c2.2,8.4,9.2,12.7,21,12.7c4.4,0,8-1,11-2.9c3-1.9,4.5-4.7,4.5-8.2c0-5.3-3.8-8.6-11.5-10l-14.2-2.7c-5.5-1.1-10-3.2-13.2-6.3c-3.3-3.1-4.9-7.2-4.9-12.3c0-5.6,2.2-10.3,6.7-14.1c4.5-3.8,10.5-5.7,18.1-5.7c14.6,0,23.6,5.7,27,17.1l-9.6,2.1c-2.7-7-8.4-10.5-16.9-10.5c-4.3,0-7.7,0.9-10.5,2.6c-2.7,1.7-4.1,4.2-4.1,7.3c0,4.9,3.5,8.1,10.4,9.3l13.1,2.4c13.7,2.5,20.6,9.1,20.6,19.9c0,6.2-2.5,11.2-7.7,15c-5.1,3.8-11.9,5.7-20.4,5.7C944.5,688.9,934.6,682.5,930.9,669.6L930.9,669.6z"/><path d="M694.8,476.1V460c0-2.5,1.9-4.1,4.1-4.1l72.4,0c2.3,0,4.2,1.7,4.2,4.1l0,13.9c0,2.3-2,5.4-5.4,10.2l-37.5,53.5c13.9-0.3,28.6,1.8,41.3,8.9c2.9,1.6,3.6,4,3.8,6.3v17.2c0,2.4-2.6,5.1-5.3,3.7c-22.3-11.7-51.8-12.9-76.5,0.1c-2.5,1.3-5.2-1.4-5.2-3.7v-16.4c0-2.6,0-7.1,2.7-11.1l43.4-62.3l-37.8,0C696.6,480.2,694.8,478.6,694.8,476.1"/><path d="M435.8,577h-22c-2.1-0.1-3.8-1.7-3.9-3.7l0-113c0-2.3,1.9-4.1,4.2-4.1l20.5,0c2.1,0.1,3.9,1.7,4,3.8v14.8h0.4c5.3-14.3,15.4-20.9,29-20.9c13.8,0,22.4,6.7,28.6,20.9c5.3-14.3,17.5-20.9,30.4-20.9c9.3,0,19.3,3.8,25.5,12.4c7,9.5,5.5,23.3,5.5,35.4l0,71.3c0,2.3-1.9,4.1-4.2,4.1h-22c-2.2-0.1-4-1.9-4-4.1l0-59.9c0-4.8,0.4-16.6-0.6-21.2c-1.6-7.6-6.6-9.8-12.9-9.8c-5.3,0-10.9,3.6-13.2,9.3c-2.3,5.7-2.1,15.2-2.1,21.6v59.9c0,2.3-1.9,4.1-4.2,4.1h-22c-2.2-0.1-4-1.9-4-4.1l0-59.9c0-12.6,2.1-31.2-13.6-31.2c-15.8,0-15.2,18.1-15.2,31.2l0,59.9C440,575.2,438.1,577,435.8,577"/><path d="M828.6,453.8c32.4,0,50,28.1,50,63.7c0,34.5-19.4,61.8-50,61.8c-31.8,0-49.1-28.1-49.1-63C779.5,481.2,797,453.8,828.6,453.8L828.6,453.8z M828.8,479.8c-16.1,0-17.1,22.1-17.1,35.9c0,13.8-0.2,40.4,16.9,40.4c16.9,0,17.7-20.9,17.7-35.4c0-9.5-0.4-20.9-3.3-30C840.6,482.9,835.7,479.8,828.8,479.8L828.8,479.8z"/><path d="M925.5,577h-21.9c-2.2-0.1-4-1.9-4-4.1l0-113.1c0.2-2.1,2-3.7,4.2-3.7l20.4,0c1.9,0.1,3.5,1.4,3.9,3.2v17.3h0.4c6.2-15.5,14.8-22.8,30-22.8c9.9,0,19.5,3.6,25.7,13.3c5.8,9,5.8,24.3,5.8,35.2v71.1c-0.2,2-2,3.6-4.2,3.6h-22.1c-2-0.1-3.7-1.6-3.9-3.6v-61.4c0-12.4,1.4-30.4-13.8-30.4c-5.3,0-10.3,3.6-12.7,9c-3.1,6.9-3.5,13.8-3.5,21.4v60.9C929.7,575.2,927.8,577,925.5,577"/><path d="M639.6,523c0,8.6,0.2,15.7-4.1,23.4c-3.5,6.2-9.1,10-15.2,10c-8.4,0-13.4-6.4-13.4-16c0-18.8,16.8-22.2,32.8-22.2V523L639.6,523z M661.8,576.7c-1.5,1.3-3.6,1.4-5.2,0.5c-7.3-6.1-8.6-8.9-12.6-14.7c-12.1,12.3-20.6,16-36.3,16c-18.5,0-33-11.4-33-34.3c0-17.9,9.7-30,23.5-36c11.9-5.2,28.6-6.2,41.4-7.6v-2.9c0-5.2,0.4-11.4-2.7-16c-2.7-4.1-7.8-5.7-12.4-5.7c-8.4,0-15.9,4.3-17.7,13.2c-0.4,2-1.8,3.9-3.8,4l-21.3-2.3c-1.8-0.4-3.8-1.9-3.3-4.6c4.9-25.9,28.3-33.7,49.2-33.7c10.7,0,24.7,2.9,33.2,11c10.7,10,9.7,23.4,9.7,37.9v34.3c0,10.3,4.3,14.8,8.3,20.4c1.4,2,1.7,4.4-0.1,5.8C674.2,565.9,666.2,572.9,661.8,576.7L661.8,576.7L661.8,576.7z"/><path d="M353.4,523c0,8.6,0.2,15.7-4.1,23.4c-3.5,6.2-9.1,10-15.2,10c-8.4,0-13.4-6.4-13.4-16c0-18.8,16.8-22.2,32.8-22.2V523L353.4,523z M375.6,576.7c-1.5,1.3-3.6,1.4-5.2,0.5c-7.3-6.1-8.6-8.9-12.6-14.7c-12.1,12.3-20.6,16-36.3,16c-18.5,0-33-11.4-33-34.3c0-17.9,9.7-30,23.5-36c11.9-5.2,28.6-6.2,41.4-7.6v-2.9c0-5.2,0.4-11.4-2.7-16c-2.7-4.1-7.8-5.7-12.4-5.7c-8.4,0-15.9,4.3-17.7,13.2c-0.4,2-1.8,3.9-3.8,4l-21.3-2.3c-1.8-0.4-3.8-1.9-3.3-4.6c4.9-25.9,28.3-33.7,49.2-33.7c10.7,0,24.7,2.9,33.2,11c10.7,10,9.7,23.4,9.7,37.9v34.3c0,10.3,4.3,14.8,8.3,20.4c1.4,2,1.7,4.4-0.1,5.8C388.1,565.9,380.1,572.9,375.6,576.7L375.6,576.7L375.6,576.7z"/></g>
</svg>