<?xml version="1.0" encoding="utf-8"?>
<!-- Svg Vector Icons : http://www.onlinewebfonts.com/icon -->
<!DOCTYPE svg PUBLIC "-//W3C//DTD SVG 1.1//EN" "http://www.w3.org/Graphics/SVG/1.1/DTD/svg11.dtd">
<svg version="1.1" xmlns="http://www.w3.org/2000/svg" xmlns:xlink="http://www.w3.org/1999/xlink" x="0px" y="0px" viewBox="0 0 1000 1000" enable-background="new 0 0 1000 1000" xml:space="preserve">
<metadata> Svg Vector Icons : http://www.onlinewebfonts.com/icon </metadata>
<g><path d="M115.1,434.4c-9-22-20.7-39.7-27-44.4c-6.3-4.7-18.7-30.4-18.7-30.4s0.2,40.7,0.2,86.8l-0.3-86.8c0,0-12.3,25.7-18.7,30.4c-6.3,4.7-18,22.4-27,44.4c-9,22-21.4,77.7-7.3,110.4c13.9,32.4,42.6,59.9,43,60.4c2.3,9,6.7,33.9,5.5,35.1h13.4l2.1-35.9c4.9-4.8,29.6-30.2,42.2-59.5C136.5,512.2,124.1,456.5,115.1,434.4z"/><path d="M195.8,503.4c6.5-6.5,10.4-10.3,11.5-11.2c2.9-2.5,6.1-4.4,9.5-5.8c3.4-1.4,6.7-2.1,10.1-2.1c5.6,0,10.4,1.6,14.5,4.9c4,3.3,6.7,8,8.1,14.2c6.7-7.8,12.4-13,17-15.4c4.6-2.4,9.4-3.7,14.3-3.7c4.8,0,9,1.2,12.7,3.7c3.7,2.4,6.6,6.4,8.7,12c1.4,3.8,2.2,9.7,2.2,17.8v38.5c0,5.6,0.4,9.5,1.3,11.5c0.7,1.4,1.9,2.7,3.6,3.7c1.8,1,4.6,1.5,8.6,1.5v3.5h-44.2V573h1.9c3.8,0,6.8-0.8,9-2.3c1.5-1,2.6-2.7,3.2-5c0.3-1.1,0.4-4.3,0.4-9.5v-38.5c0-7.3-0.9-12.4-2.6-15.4c-2.5-4.2-6.6-6.3-12.2-6.3c-3.5,0-6.9,0.9-10.4,2.6c-3.5,1.7-7.7,4.9-12.7,9.6l-0.2,1.1l0.2,4.2v42.7c0,6.1,0.3,9.9,1,11.4c0.7,1.5,2,2.8,3.9,3.8c1.9,1,5.1,1.5,9.7,1.5v3.5h-45.3V573c5,0,8.4-0.6,10.2-1.8s3.1-2.9,3.9-5.3c0.3-1.1,0.5-4.3,0.5-9.7v-38.5c0-7.3-1.1-12.5-3.2-15.7c-2.9-4.2-6.9-6.3-12-6.3c-3.5,0-7,0.9-10.5,2.8c-5.4,2.9-9.6,6.1-12.5,9.7v48c0,5.9,0.4,9.7,1.2,11.4c0.8,1.8,2,3.1,3.6,4c1.6,0.9,4.8,1.3,9.7,1.3v3.5h-44.3V573c4.1,0,7-0.4,8.6-1.3c1.6-0.9,2.9-2.3,3.7-4.2c0.8-1.9,1.3-5.7,1.3-11.2V522c0-9.8-0.3-16.2-0.9-19.1c-0.5-2.1-1.2-3.6-2.2-4.4c-1-0.8-2.3-1.2-4-1.2c-1.8,0-4,0.5-6.5,1.5l-1.5-3.5l27-10.9h4.2L195.8,503.4L195.8,503.4z"/><path d="M368.7,484.3c13.6,0,24.4,5.1,32.6,15.4c7,8.8,10.5,18.9,10.5,30.3c0,8-1.9,16.1-5.8,24.3c-3.8,8.2-9.1,14.4-15.9,18.6c-6.7,4.2-14.3,6.3-22.5,6.3c-13.5,0-24.2-5.4-32.2-16.1c-6.7-9.1-10.1-19.2-10.1-30.5c0-8.2,2-16.4,6.1-24.5c4.1-8.1,9.4-14.1,16.1-18C354.2,486.3,361.2,484.3,368.7,484.3z M365.6,490.7c-3.5,0-6.9,1-10.4,3.1c-3.5,2.1-6.3,5.7-8.5,10.8c-2.1,5.1-3.2,11.8-3.2,19.8c0,13,2.6,24.3,7.8,33.7c5.2,9.5,12,14.2,20.5,14.2c6.3,0,11.5-2.6,15.6-7.8c4.1-5.2,6.2-14.2,6.2-26.9c0-15.9-3.4-28.4-10.3-37.5C378.7,493.8,372.8,490.7,365.6,490.7z"/><path d="M451.1,503.3c10.5-12.6,20.5-19,30-19c4.9,0,9.1,1.2,12.6,3.7c3.5,2.4,6.3,6.5,8.4,12.1c1.4,3.9,2.2,9.9,2.2,18v38.2c0,5.7,0.5,9.5,1.4,11.5c0.7,1.6,1.9,2.9,3.5,3.8c1.6,0.9,4.5,1.4,8.8,1.4v3.5h-44.3V573h1.9c4.2,0,7.1-0.6,8.7-1.9c1.7-1.3,2.8-3.1,3.5-5.6c0.3-1,0.4-4,0.4-9.2v-36.7c0-8.1-1.1-14.1-3.2-17.7c-2.1-3.7-5.7-5.5-10.7-5.5c-7.8,0-15.5,4.2-23.2,12.7v47.2c0,6.1,0.4,9.8,1.1,11.2c0.9,1.9,2.2,3.3,3.8,4.2c1.6,0.9,4.8,1.3,9.7,1.3v3.5h-44.3V573h2c4.6,0,7.6-1.2,9.2-3.5c1.6-2.3,2.4-6.7,2.4-13.2V523c0-10.8-0.2-17.3-0.7-19.6c-0.5-2.3-1.2-3.9-2.2-4.8c-1-0.8-2.4-1.3-4.1-1.3c-1.8,0-4,0.5-6.5,1.5l-1.5-3.5l27-10.9h4.2L451.1,503.3L451.1,503.3z"/><path d="M549,543.8c-5.5-2.7-9.7-6.4-12.6-11.2c-2.9-4.8-4.4-10.1-4.4-15.9c0-8.9,3.3-16.5,10-22.9c6.7-6.4,15.2-9.6,25.7-9.6c8.5,0,15.9,2.1,22.2,6.3h19c2.8,0,4.4,0.1,4.9,0.2c0.5,0.2,0.8,0.4,1,0.8c0.4,0.6,0.6,1.6,0.6,3.1c0,1.7-0.2,2.9-0.5,3.5c-0.2,0.3-0.5,0.6-1,0.8c-0.5,0.2-2.1,0.3-4.9,0.3h-11.6c3.6,4.7,5.5,10.7,5.5,18c0,8.3-3.2,15.5-9.6,21.4c-6.4,5.9-15,8.9-25.7,8.9c-4.4,0-9-0.7-13.6-2c-2.9,2.5-4.8,4.6-5.8,6.5c-1,1.9-1.5,3.4-1.5,4.7c0,1.1,0.5,2.2,1.6,3.2c1.1,1,3.2,1.8,6.3,2.2c1.8,0.3,6.4,0.5,13.7,0.7c13.4,0.3,22.1,0.8,26.1,1.4c6.1,0.8,10.9,3.1,14.5,6.7c3.6,3.6,5.4,8.1,5.4,13.5c0,7.4-3.5,14.3-10.4,20.7c-10.2,9.5-23.4,14.3-39.8,14.3c-12.6,0-23.2-2.8-31.9-8.5c-4.9-3.3-7.3-6.6-7.3-10.2c0-1.6,0.4-3.1,1.1-4.7c1.1-2.4,3.4-5.8,6.8-10.1c0.5-0.6,3.8-4.1,10-10.6c-3.4-2-5.8-3.8-7.2-5.4c-1.4-1.6-2.1-3.4-2.1-5.4c0-2.3,0.9-5,2.8-8C538,553.8,542.3,549.4,549,543.8z M548,576.5c-3.1,3.3-5.4,6.4-6.9,9.3c-1.6,2.9-2.3,5.5-2.3,7.9c0,3.1,1.9,5.9,5.7,8.2c6.5,4,15.9,6.1,28.2,6.1c11.7,0,20.4-2.1,25.9-6.2c5.6-4.1,8.4-8.6,8.4-13.2c0-3.4-1.7-5.8-5-7.2c-3.4-1.4-10.1-2.3-20.1-2.5C567.2,578.3,555.9,577.6,548,576.5z M566,489c-4.8,0-8.9,1.9-12.1,5.8c-3.3,3.8-4.9,9.7-4.9,17.7c0,10.3,2.2,18.3,6.6,23.9c3.4,4.3,7.7,6.4,12.9,6.4c5,0,9-1.9,12.2-5.6c3.2-3.7,4.8-9.5,4.8-17.5c0-10.4-2.2-18.5-6.7-24.3C575.5,491.2,571.2,489,566,489z"/><path d="M668.9,484.3c13.6,0,24.4,5.1,32.6,15.4c7,8.8,10.5,18.9,10.5,30.3c0,8-1.9,16.1-5.8,24.3c-3.8,8.2-9.1,14.4-15.9,18.6c-6.7,4.2-14.3,6.3-22.5,6.3c-13.5,0-24.2-5.4-32.2-16.1c-6.7-9.1-10.1-19.2-10.1-30.5c0-8.2,2-16.4,6.1-24.5c4.1-8.1,9.4-14.1,16.1-18C654.5,486.3,661.5,484.3,668.9,484.3z M665.9,490.7c-3.5,0-6.9,1-10.4,3.1c-3.5,2.1-6.3,5.7-8.5,10.8c-2.2,5.1-3.2,11.8-3.2,19.8c0,13,2.6,24.3,7.8,33.7c5.2,9.5,12,14.2,20.5,14.2c6.3,0,11.5-2.6,15.6-7.8c4.1-5.2,6.2-14.2,6.2-26.9c0-15.9-3.4-28.4-10.3-37.5C679,493.8,673.1,490.7,665.9,490.7z"/><path d="M721.6,576.5v-3.6h4.4c3.8,0,6.8-0.6,8.8-1.8c2.1-1.2,3.6-2.8,4.5-4.9c0.6-1.4,0.9-5.5,0.9-12.3v-87.2c0-6.8-0.4-11-1.1-12.7c-0.7-1.7-2.2-3.2-4.3-4.4c-2.2-1.3-5.1-1.9-8.8-1.9h-4.4V444h59.3c15.8,0,28.6,2.1,38.2,6.5c11.8,5.3,20.7,13.3,26.8,23.9c6.1,10.7,9.1,22.8,9.1,36.3c0,9.3-1.5,17.9-4.5,25.8c-3,7.9-6.9,14.3-11.6,19.5c-4.8,5.1-10.2,9.2-16.5,12.3c-6.2,3.1-13.8,5.5-22.8,7.2c-4,0.8-10.2,1.2-18.8,1.2H721.6z M772.1,451.5v103.4c0,5.5,0.3,8.8,0.8,10.1c0.5,1.2,1.4,2.2,2.6,2.8c1.8,1,4.3,1.5,7.6,1.5c10.9,0,19.2-3.7,24.9-11.1c7.8-10,11.7-25.6,11.7-46.7c0-17-2.7-30.6-8-40.8c-4.2-7.9-9.7-13.4-16.3-16.2C790.8,452.4,783,451.4,772.1,451.5z"/><path d="M952.6,506.2c12.6,2.9,21.4,6.5,26.5,10.7c7.3,5.9,10.9,13.6,10.9,23.1c0,10-4,18.2-12,24.7c-9.8,7.9-24.1,11.8-42.9,11.8h-67.3v-3.6c6.1,0,10.3-0.6,12.5-1.7c2.2-1.1,3.7-2.6,4.6-4.4c0.9-1.8,1.3-6.3,1.3-13.5v-86c0-7.2-0.4-11.7-1.3-13.5c-0.9-1.9-2.4-3.3-4.6-4.4c-2.2-1.1-6.4-1.7-12.4-1.7V444h63.5c15.2,0,25.9,1.4,32.3,4.1c6.3,2.7,11.3,6.7,15,12.1c3.6,5.4,5.5,11.1,5.5,17.2c0,6.4-2.3,12.1-6.9,17.1C972.4,499.3,964.2,503.3,952.6,506.2z M917,511.2v42.5l-0.1,4.9c0,3.5,0.9,6.2,2.7,8c1.8,1.8,4.4,2.7,8,2.7c5.2,0,10-1.2,14.4-3.5c4.4-2.3,7.8-5.7,10.1-10.1c2.3-4.4,3.5-9.3,3.5-14.7c0-6.2-1.4-11.7-4.3-16.7c-2.9-4.9-6.8-8.4-11.8-10.3C934.5,512.1,927,511.1,917,511.2z M917,503.6c9.3,0,16.1-1,20.5-3.1c4.4-2.1,7.8-5,10.1-8.8c2.3-3.8,3.5-8.6,3.5-14.5c0-5.9-1.2-10.7-3.5-14.4c-2.3-3.7-5.6-6.6-9.9-8.6c-4.3-2-11.2-2.9-20.7-2.8L917,503.6L917,503.6z"/></g>
</svg>