<?xml version="1.0" encoding="utf-8"?>
<!-- Svg Vector Icons : http://www.onlinewebfonts.com/icon -->
<!DOCTYPE svg PUBLIC "-//W3C//DTD SVG 1.1//EN" "http://www.w3.org/Graphics/SVG/1.1/DTD/svg11.dtd">
<svg version="1.1" xmlns="http://www.w3.org/2000/svg" xmlns:xlink="http://www.w3.org/1999/xlink" x="0px" y="0px" viewBox="0 0 1000 1000" enable-background="new 0 0 1000 1000" xml:space="preserve">
<metadata> Svg Vector Icons : http://www.onlinewebfonts.com/icon </metadata>
<g><g transform="translate(0.000000,440.000000) scale(0.100000,-0.100000)"><path d="M1921.6,2732.4c-139.4-10.7-556.1-44.4-926.8-75.1c-839.4-65.9-798.1-61.3-854.8-116.4c-41.4-41.4-44.4-52.1-36.8-119.5c4.6-41.4,27.6-118,50.6-171.6C219.7,2089,2087-1956.6,2177.4-2137.3c47.5-95,116.4-168.5,196.1-211.4c127.1-65.9,177.7-56.7,1286.7,231.3c556.1,145.5,1024.8,268.1,1043.2,272.7c27.6,7.7,53.6-29.1,212.9-318.6c811.9-1467.5,955.9-1701.9,1086.1-1769.3c67.4-35.2,200.7-18.4,415.1,53.6c442.7,147.1,3036.1,1081.5,3177,1144.3c116.4,52.1,134.8,90.4,88.8,176.2c-18.4,33.7-297.2,415.1-617.3,847.1c-321.7,432-586.7,790.4-588.2,799.6c-1.5,7.7,303.3,96.5,677.1,196.1c373.8,99.6,693.9,191.5,713.8,203.7c24.5,15.3,33.7,35.2,30.6,59.7c-6.1,42.9-1148.9,1467.5-1240.8,1547.2c-35.2,29.1-84.2,56.7-110.3,61.3C8491.7,1166.9,7059.4,931,6966,895.7c-65.9-26-90.4-62.8-75-111.8c6.1-15.3,232.8-344.7,505.5-732.2c410.5-579,493.2-704.7,471.8-713.8c-29.1-13.8-2902.8-701.6-2925.8-701.6c-7.7,0-537.7,873.1-1176.5,1942.4c-638.8,1067.7-1187.2,1980.7-1219.3,2029.7c-32.2,47.5-76.6,99.6-98,113.4C2394.9,2755.4,2234.1,2760,1921.6,2732.4z M2280.1,2424.5c99.6-153.2,2221.2-3831.1,2227.3-3860.2c4.6-27.6-3.1-35.2-52.1-49c-176.2-47.5-1801.4-430.4-1825.9-430.4c-21.5,0-122.5,196.1-488.7,954.3C1886.4-437,1426.8,511.2,1117.4,1147c-307.9,635.7-557.6,1162.7-554.5,1171.9c4.6,12.3,1394,148.6,1637.5,160.8C2234.1,2481.2,2251,2468.9,2280.1,2424.5z M8634.1,773.2c49-58.2,249.7-314,448.8-565.2c294.1-375.3,356.9-462.6,340.1-479.5c-18.4-18.4-1202.5-320.2-1211.7-309.4c-347.7,468.7-873.1,1208.6-873.1,1230.1c-1.5,26,47.5,38.3,488.7,116.4c269.6,49,520.8,95,559.1,104.2C8516.2,898.8,8537.6,891.1,8634.1,773.2z M8651-1662.4c277.3-378.4,511.6-704.6,520.8-724.6c9.2-21.4,10.7-39.8,1.5-49c-7.7-7.7-586.7-208.3-1285.2-445.8c-700-235.9-1360.3-461.1-1470.6-497.9c-108.8-36.8-208.3-67.4-222.1-67.4c-55.1,0-76.6,33.7-677.1,1069.2c-202.2,347.7-363.1,637.2-356.9,643.4c18.4,19.9,2893.7,765.9,2939.6,764.4C8140.9-973.1,8194.5-1040.5,8651-1662.4z"/></g></g>
</svg>